<?xml version="1.0" encoding="utf-8"?>
<!-- Generator: Adobe Illustrator 19.2.1, SVG Export Plug-In . SVG Version: 6.00 Build 0)  -->
<svg version="1.1" id="Layer_2" xmlns="http://www.w3.org/2000/svg" xmlns:xlink="http://www.w3.org/1999/xlink" x="0px" y="0px"
	 viewBox="0 0 80.3 80.3" style="enable-background:new 0 0 80.3 80.3;" xml:space="preserve">
<style type="text/css">
	.st0{fill:#EB6A5C;}
	.st1{fill:#552F2F;}
	.st2{fill:#2384AB;}
	.st3{fill:#FFFFFF;}
	.st4{fill:#0C2C48;}
	.st5{fill:#F6A09C;}
	.st6{fill:#61C3AF;}
	.st7{fill:#2F4555;}
	.st8{fill:#55AB99;}
	.st9{fill:#ED6B5A;}
	.st10{fill:#2484AD;}
	.st11{fill:#FCA886;}
	.st12{fill:#F1CC4B;}
	.st13{fill:#6EB9E0;}
	.st14{fill:#50646F;}
	.st15{fill:#EDC84A;}
	.st16{fill:#E7543A;}
	.st17{fill:#F38D80;}
	.st18{fill:#F2F2F2;}
	.st19{fill:#81CAFF;}
	.st20{clip-path:url(#SVGID_4_);fill:#55AB99;}
	.st21{fill:#BABFC5;}
	.st22{fill:#BBC2C7;}
</style>
<g>
	<circle class="st12" cx="40.2" cy="40.2" r="40.2"/>
	<g>
		<polygon class="st16" points="66.6,28.2 13.8,28.2 22.1,12.5 58.4,12.5 		"/>
		<polygon class="st19" points="63.6,29.2 16.8,29.2 24.2,13.9 56.3,13.9 		"/>
		<g>
			<rect x="12.8" y="50.2" class="st4" width="8.4" height="9.6"/>
			<rect x="59.2" y="50.2" class="st4" width="8.4" height="9.6"/>
		</g>
		<path class="st16" d="M71.6,48.1V30.5c0-2.1-1.7-3.8-3.8-3.8H12.6c-2.1,0-3.8,1.7-3.8,3.8v17.6H71.6z"/>
		<g>
			<rect x="10.4" y="29.5" class="st12" width="13.5" height="7"/>
			<rect x="56.5" y="29.5" class="st12" width="13.5" height="7"/>
		</g>
		<rect x="5.4" y="46.3" class="st14" width="69.5" height="4.2"/>
		<rect x="27.4" y="30.7" class="st4" width="25.6" height="9.3"/>
	</g>
</g>
</svg>
